<?xml version="1.0" encoding="UTF-8"?>
<svg id="Camada_2" data-name="Camada 2" xmlns="http://www.w3.org/2000/svg" xmlns:xlink="http://www.w3.org/1999/xlink" viewBox="0 0 1207.04 164.38">
  <defs>
    <style>
      .cls-1 {
        fill: #2f495e;
      }

      .cls-2 {
        fill: none;
      }

      .cls-3 {
        fill: #95c0b1;
      }

      .cls-4 {
        clip-path: url(#clippath-1);
      }

      .cls-5 {
        fill: #a0cbef;
      }

      .cls-6 {
        clip-path: url(#clippath-2);
      }

      .cls-7 {
        clip-path: url(#clippath);
      }
    </style>
    <clipPath id="clippath">
      <rect class="cls-2" width="1207.04" height="159.57"/>
    </clipPath>
    <clipPath id="clippath-1">
      <rect class="cls-2" width="1207.04" height="123.72"/>
    </clipPath>
    <clipPath id="clippath-2">
      <rect class="cls-2" y="55.42" width="1207.04" height="108.96"/>
    </clipPath>
  </defs>
  <g id="Camada_1-2" data-name="Camada 1">
    <g class="cls-7">
      <path class="cls-3" d="M.18,121.9V-18.41h1206.68v177.23c-40.97-.33-152.35,3.32-291.25-16.04-30.87-4.3-61.19-9.48-90.97-15.53-1.33-.27-2.66-.54-3.98-.8C191.1-.98,5.92,124.12.31,122.09c-.1-.05-.15-.12-.13-.19Z"/>
    </g>
    <g class="cls-4">
      <path class="cls-1" d="M.18,86.18V-18.41h1206.68V123.09c-40.97-.33-152.35,3.32-291.25-16.04-30.87-4.3-61.19-9.47-90.97-15.53-1.33-.27-2.66-.54-3.98-.81C191.1-36.69,5.92,88.41.31,86.37c-.11-.05-.15-.12-.13-.19Z"/>
    </g>
    <g class="cls-6">
      <path class="cls-5" d="M.18,126.84v-18.4c-.02.08.02.14.13.19,5.63,2.04,190.79-123.06,820.35,4.35,1.33.27,2.66.54,3.98.8,29.77,6.05,60.1,11.23,90.97,15.53,138.9,19.36,250.29,15.71,291.25,16.04v18.4c-40.97-.33-152.35,3.32-291.25-16.04-30.87-4.3-61.19-9.48-90.97-15.53-1.33-.27-2.66-.54-3.98-.81C191.1,3.97,5.92,129.07.31,127.03c-.1-.05-.15-.11-.13-.19Z"/>
    </g>
  </g>
</svg>