<svg width="553" height="232" viewBox="0 0 553 232" fill="none" xmlns="http://www.w3.org/2000/svg">
<path d="M383.6 185.7V3H427.5V185.7C426.4 184.4 418.6 175.5 405.6 175.5C392.5 175.5 384.7 184.4 383.7 185.7H383.6Z" fill="white"/>
<path d="M427.2 223C428.7 221.2 434.1 214.7 434.2 204.7C434.4 194.1 428.6 187 427.2 185.4H545.4V223H427.2Z" fill="white"/>
<path d="M240.8 3H196.9V223H240.8V3Z" fill="white"/>
<path d="M238.5 142.4V104.8H280.9C291.1 104.8 299 102 304.7 96.4C310.3 90.8 313.2 82.9 313.2 72.8C313.2 62.7 310.4 54.7 304.7 49.1C299.1 43.5 291.1 40.7 280.9 40.7H239.2L235.2 3.09998H280.9C306.3 3.09998 325.9 8.89997 339.7 20.4C353.5 32 360.5 48.4 360.5 69.7C360.5 91 353.6 110.6 339.7 123.4C325.9 136.2 306.2 142.5 280.9 142.5H238.5V142.4Z" fill="white"/>
<path d="M316.7 223L272.2 119.5H318.4L354.5 193.3L356.1 196.4L362.2 209L365.2 215.1L369.1 223H316.7Z" fill="white"/>
<path d="M88.8 229.3C74.5 229.3 47.8 229.3 26.7 208.8C2.20002 184.9 4.40002 151.6 4.90002 146.4H50.7C50.4 148.5 47.6 167.1 60.9 180.2C71.3 190.4 84.6 190.5 89.7 190.5C102.2 190.5 111.9 187.1 118.7 180.3C127.9 171.1 128.5 157.5 128.9 151.3C129.1 148.8 129 146.6 128.9 145.2H172.8C172.8 146.6 172.8 148.8 172.8 151.3C172.6 157.4 172.3 189 150.6 208.9C135.8 222.5 115.2 229.3 88.9 229.3H88.8Z" fill="white"/>
<path d="M128.8 146.4V40.7C129.7 41.9 137.5 51.1 150.7 51.1C163.9 51.1 164.4 50.9 172.6 40.7V146.4" fill="white"/>
<path d="M405.5 223C415.883 223 424.3 214.583 424.3 204.2C424.3 193.817 415.883 185.4 405.5 185.4C395.117 185.4 386.7 193.817 386.7 204.2C386.7 214.583 395.117 223 405.5 223Z" fill="white"/>
<path d="M169.6 21.8C169.5 46.4 132.1 46.4 132 21.8C132.1 -2.80002 169.5 -2.80002 169.6 21.8Z" fill="white"/>
<path d="M146.8 39.9C146.8 44.7 146.8 49.4 146.8 54.2H154.8C154.8 49.4 154.8 44.7 154.8 39.9C153.6 40 152.2 40.1 150.8 40.1C149.3 40.1 148 40.1 146.8 39.9Z" fill="white"/>
<path d="M169.2 25.9C178.6 25.9 188.1 25.9 197.5 25.9V17.9C188.1 17.9 178.6 17.9 169.2 17.9C169.2 19 169.4 20.3 169.4 21.6C169.4 23.2 169.4 24.6 169.2 26V25.9Z" fill="white"/>
<path d="M423.9 208.2C427.2 208.2 430.6 208.2 433.9 208.2C434.2 207.4 434.8 206 434.8 204.2C434.8 202.4 434.3 200.9 433.9 200.2H423.9C423.7 201.3 423.5 202.8 423.5 204.5C423.5 206 423.7 207.2 423.9 208.3V208.2Z" fill="white"/>
<path d="M361.8 208.2H387.3C387.2 207 387.1 205.6 387.1 204.2C387.1 202.7 387.1 201.4 387.3 200.2H357.9C358.1 201.3 358.5 202.7 359.3 204.2C360.1 205.9 361.1 207.3 361.9 208.2H361.8Z" fill="white"/>
<path d="M409.7 185.8C409.7 182.5 409.7 179.1 409.7 175.8C409.1 175.4 407.7 174.6 405.7 174.6C403.7 174.6 402.2 175.4 401.7 175.7V185.7C402.4 186.1 403.8 186.7 405.7 186.7C407.6 186.7 409.1 186.1 409.7 185.7V185.8Z" fill="white"/>
</svg>
