<?xml version="1.0" encoding="UTF-8"?>
<svg id="Camada_2" xmlns="http://www.w3.org/2000/svg" version="1.1" viewBox="0 0 552.1 231.9">
  <!-- Generator: Adobe Illustrator 29.5.1, SVG Export Plug-In . SVG Version: 2.1.0 Build 141)  -->
  <defs>
    <style>
      .st0 {
        fill: #2f495e;
      }
    </style>
  </defs>
  <g>
    <path class="st0" d="M383.6,185.7V3h43.9v182.7c-1.1-1.3-8.9-10.2-21.9-10.2-13.1,0-20.9,8.9-21.9,10.2Z"/>
    <path class="st0" d="M427.2,223c1.5-1.8,6.9-8.3,7-18.3.2-10.6-5.6-17.7-7-19.3h118.2v37.6h-118.2Z"/>
  </g>
  <g>
    <rect class="st0" x="196.9" y="3" width="43.9" height="220"/>
    <path class="st0" d="M238.5,142.4v-37.6h42.4c10.2,0,18.1-2.8,23.8-8.4,5.6-5.6,8.5-13.5,8.5-23.6s-2.8-18.1-8.5-23.7c-5.6-5.6-13.6-8.4-23.8-8.4h-41.7l-4-37.6h45.7c25.4,0,45,5.8,58.8,17.3,13.8,11.6,20.8,28,20.8,49.3s-6.9,40.9-20.8,53.7c-13.8,12.8-33.5,19.1-58.8,19.1h-42.4Z"/>
    <polygon class="st0" points="316.7 223 272.2 119.5 318.4 119.5 354.5 193.3 356.1 196.4 362.2 209 365.2 215.1 369.1 223 316.7 223"/>
  </g>
  <path class="st0" d="M88.8,229.3c-14.3,0-41,0-62.1-20.5-24.5-23.9-22.3-57.2-21.8-62.4h45.8c-.3,2.1-3.1,20.7,10.2,33.8,10.4,10.2,23.7,10.3,28.8,10.3,12.5,0,22.2-3.4,29-10.2,9.2-9.2,9.8-22.8,10.2-29,.2-2.5.1-4.7,0-6.1h43.9c0,1.4,0,3.6,0,6.1-.2,6.1-.5,37.7-22.2,57.6-14.8,13.6-35.4,20.4-61.7,20.4Z"/>
  <path class="st0" d="M128.8,146.4V40.7c.9,1.2,8.7,10.4,21.9,10.4s13.7-.2,21.9-10.4v105.7"/>
  <circle class="st0" cx="405.5" cy="204.2" r="18.8"/>
  <path class="st0" d="M169.6,21.8c-.1,24.6-37.5,24.6-37.6,0,.1-24.6,37.5-24.6,37.6,0Z"/>
  <path class="st0" d="M146.8,39.9c0,4.8,0,9.5,0,14.3h8c0-4.8,0-9.5,0-14.3-1.2.1-2.6.2-4,.2-1.5,0-2.8,0-4-.2Z"/>
  <path class="st0" d="M169.2,25.9c9.4,0,18.9,0,28.3,0v-8c-9.4,0-18.9,0-28.3,0,0,1.1.2,2.4.2,3.7,0,1.6,0,3-.2,4.4Z"/>
  <path class="st0" d="M423.9,208.2c3.3,0,6.7,0,10,0,.3-.8.9-2.2.9-4,0-1.8-.5-3.3-.9-4h-10c-.2,1.1-.4,2.6-.4,4.3,0,1.5.2,2.7.4,3.8Z"/>
  <path class="st0" d="M361.8,208.2h25.5c-.1-1.2-.2-2.6-.2-4,0-1.5,0-2.8.2-4h-29.4c.2,1.1.6,2.5,1.4,4,.8,1.7,1.8,3.1,2.6,4Z"/>
  <path class="st0" d="M409.7,185.8c0-3.3,0-6.7,0-10-.6-.4-2-1.2-4-1.2-2,0-3.5.8-4,1.1v10c.7.4,2.1,1,4,1,1.9,0,3.4-.6,4-1Z"/>
</svg>