<?xml version="1.0" encoding="UTF-8"?>
<svg id="Camada_2" data-name="Camada 2" xmlns="http://www.w3.org/2000/svg" xmlns:xlink="http://www.w3.org/1999/xlink" viewBox="0 0 1222 106">
  <defs>
    <style>
      .cls-1 {
        fill: #2f495e;
      }

      .cls-2 {
        fill: none;
      }

      .cls-3 {
        fill: #95c0b1;
      }

      .cls-4 {
        clip-path: url(#clippath-1);
      }

      .cls-5 {
        clip-path: url(#clippath);
      }
    </style>
    <clipPath id="clippath">
      <rect class="cls-2" width="1222" height="95.96"/>
    </clipPath>
    <clipPath id="clippath-1">
      <rect class="cls-2" y="19.07" width="1222" height="86.93"/>
    </clipPath>
  </defs>
  <g id="Camada_2-2" data-name="Camada 2">
    <g id="Camada_1-2" data-name="Camada 1-2">
      <g class="cls-5">
        <path class="cls-1" d="M-16.59,92V-2.34h1250.51v54.78h-.02c-1.85-.45-120.89-28.85-321.14-28.85-18.85,0-37.18.18-55,.54-131.46,2.59-236.51,14.21-331.84,27.35-45.75,6.31-89.27,12.96-132.4,19.14-124.99,17.9-246.73,31.77-410.11,21.38h0Z"/>
      </g>
      <g class="cls-4">
        <path class="cls-3" d="M-16.59,105.82v-28.23l5,.62c2.02.25,4.05.49,6.07.73l6.08.72c2.03.24,4.08.45,6.1.66l6.13.64c4.09.44,8.2.8,12.32,1.19,2.06.19,4.12.38,6.18.56l6.2.51c16.56,1.34,33.26,2.36,50.13,3.07,16.86.71,33.81,1.1,50.83,1.16,17.01.06,34.05-.19,51.13-.74,34.12-1.08,68.19-3.41,101.94-6.56,33.74-3.15,67.18-7.14,100.39-11.47l.42-.05.47-.06c34.11-4.45,68-9.25,102.01-13.92,34.29-4.73,68.75-9.28,103.49-13.43l13.06-1.52,6.53-.75,6.56-.72,13.11-1.44,13.16-1.37,6.58-.68,6.6-.64,13.21-1.29,13.26-1.2,6.63-.6c1.1-.1,2.22-.2,3.34-.29l3.34-.28c16.85-1.43,33.77-2.73,50.76-3.89,18.76-1.28,37.59-2.38,56.5-3.32l13.51-.6,6.77-.31,1.69-.07,1.69-.07,3.39-.13,13.55-.52c2.26-.08,4.53-.17,6.78-.25l6.79-.22c9.05-.29,18.12-.54,27.19-.75,4.54-.1,9.08-.2,13.62-.29l6.81-.13,6.83-.09c18.23-.3,36.51-.32,54.82-.19l6.87.06,3.44.03,3.43.05,13.75.22,13.75.32c2.29.04,4.58.12,6.88.19l6.88.22c4.58.12,9.17.31,13.75.48l6.88.26,6.88.31,6.89.31c2.29.1,4.58.23,6.88.34l6.88.35c1.15.05,2.29.12,3.44.19l3.44.2c16.44.95,32.88,2.08,49.3,3.41,1.9.16,3.79.31,5.7.47,18.32,1.54,36.62,3.36,54.91,5.47,9.17,1.06,18.29,2.22,27.51,3.46,1.15.15,2.3.31,3.46.48l3.46.49c1.15.16,2.32.34,3.47.51l1.66.25v30.64l-15.21-3.42c-.74-.16-.89-.2-.91-.21-.01,0,.09.01-.09-.03l-.29-.08-.27-.07-.12-.04-.47-.16c-.14-.05-.34-.11-.52-.18l-.56-.17c-.35-.11-.76-.23-1.16-.35l-1.19-.35-2.5-.72c-.84-.24-1.72-.47-2.56-.71-3.45-.95-7.02-1.87-10.67-2.77-7.29-1.81-14.85-3.51-22.55-5.15-3.87-.8-7.75-1.61-11.67-2.37-3.93-.76-7.89-1.52-11.86-2.27-1.99-.37-4.01-.72-6.01-1.08l-3.02-.54c-1-.17-2.01-.35-3.03-.52l-6.08-1.02c-2.03-.35-4.07-.67-6.11-.99-32.74-5.23-66.88-9.24-101.67-12.16l-6.54-.52c-2.17-.17-4.36-.36-6.55-.51l-13.14-.95-13.2-.82-3.31-.2-3.31-.17-6.62-.35c-17.68-.9-35.46-1.58-53.31-1.93l-6.7-.15-6.71-.11c-4.48-.07-8.96-.13-13.44-.16-8.96-.08-17.93-.12-26.9-.1l-6.73.02c-2.24,0-4.48.04-6.72.06l-13.46.14-3.36.04-1.66.02-1.66.03-6.72.14-13.45.28-1.66.04-1.66.05-3.36.1-6.72.21-6.72.22c-2.24.07-4.48.13-6.71.22l-13.42.55-6.71.28c-2.23.1-4.46.22-6.67.34l-13.39.69c-2.23.11-4.46.25-6.67.38l-6.67.4-6.67.41c-2.23.13-4.45.27-6.67.43l-13.31.94-3.34.24c-1.11.07-2.22.16-3.34.25l-6.63.52-13.26,1.06-13.21,1.17-6.61.59-6.58.64-13.15,1.28-13.1,1.38-6.55.7-6.52.74c-4.35.49-8.7.98-13.03,1.48-8.66,1.05-17.33,2.05-25.94,3.17-4.31.55-8.63,1.08-12.92,1.66l-12.87,1.72-3.21.43-3.21.45-6.42.89c-4.28.59-8.55,1.19-12.81,1.8-8.53,1.22-17.04,2.46-25.52,3.73-33.97,5.06-67.67,10.45-101.51,15.75l-.64.1c-32.49,5.08-65.14,10.04-98.41,14.48-16.74,2.23-33.63,4.33-50.7,6.25-17.07,1.91-34.31,3.64-51.74,5.16-35.13,3.05-70.58,5.15-106.36,6.28-17.99.58-36.06.93-54.22,1.05l-6.81.06h-6.81c-4.54,0-9.1.04-13.65,0s-9.12-.01-13.68-.06l-6.84-.05h-1.92v-.07Z"/>
      </g>
    </g>
  </g>
</svg>