<?xml version="1.0" encoding="UTF-8"?>
<svg id="Camada_2" data-name="Camada 2" xmlns="http://www.w3.org/2000/svg" viewBox="0 0 35.34 35.34">
  <defs>
    <style>
      .cls-1 {
        fill: #fff;
      }
    </style>
  </defs>
  <g id="ELEMENTS">
    <path class="cls-1" d="M34.65,26.43l-9.89-9.89-6.43,6.43-5.98-5.95,6.45-6.45L8.92.69C8.47.24,7.83-.02,7.2,0c-.63.01-1.24.28-1.67.74-7.57,8.14-7.35,20.68.52,28.54,4.03,4.03,9.28,6.05,14.54,6.05s10.03-1.84,14-5.53c.46-.43.73-1.04.74-1.67.01-.64-.24-1.26-.69-1.71ZM8.43,26.91C2.1,20.58,1.68,10.63,7.3,3.82l6.75,6.75-4.07,4.07c-.63.63-.98,1.47-.98,2.36s.35,1.73.98,2.36l6,6c.63.63,1.47.98,2.36.98s1.73-.35,2.36-.98l4.07-4.07,6.75,6.75c-6.81,5.62-16.76,5.2-23.09-1.13Z"/>
  </g>
</svg>