<?xml version="1.0" encoding="UTF-8"?>
<svg id="Camada_2" data-name="Camada 2" xmlns="http://www.w3.org/2000/svg" viewBox="0 0 35.54 35.63">
  <defs>
    <style>
      .cls-1 {
        fill-rule: evenodd;
      }

      .cls-1, .cls-2 {
        fill: #2f495e;
      }
    </style>
  </defs>
  <g id="ELEMENTS">
    <g>
      <path class="cls-2" d="M0,35.63l2.55-9.53c-1.45-2.61-2.21-5.53-2.21-8.5C.35,7.89,8.24,0,17.94,0s17.6,7.89,17.6,17.6-7.89,17.6-17.6,17.6c-2.91,0-5.79-.74-8.36-2.13l-9.58,2.57ZM10.06,29.49l.6.36c2.21,1.32,4.73,2.02,7.28,2.02,7.87,0,14.27-6.4,14.27-14.27S25.81,3.33,17.94,3.33,3.67,9.73,3.67,17.6c0,2.6.72,5.16,2.09,7.4l.37.61-1.43,5.32,5.35-1.43Z"/>
      <path class="cls-1" d="M24.49,20.04c-.72-.43-1.67-.92-2.52-.57-.65.27-1.07,1.29-1.5,1.82-.22.27-.48.31-.81.18-2.46-.98-4.34-2.62-5.7-4.88-.23-.35-.19-.63.09-.95.41-.48.92-1.03,1.03-1.68.11-.65-.19-1.41-.46-1.99-.34-.74-.73-1.79-1.47-2.21-.68-.38-1.58-.17-2.18.32-1.05.85-1.55,2.19-1.54,3.51,0,.38.05.75.14,1.11.21.87.62,1.69,1.07,2.46.34.58.71,1.15,1.12,1.7,1.31,1.79,2.95,3.34,4.84,4.5.95.58,1.96,1.09,3.02,1.44,1.18.39,2.24.8,3.52.56,1.34-.25,2.66-1.08,3.19-2.37.16-.38.24-.81.15-1.21-.18-.83-1.31-1.33-1.98-1.73Z"/>
    </g>
  </g>
</svg>